<svg width="40" height="40" viewBox="0 0 40 40" fill="none" xmlns="http://www.w3.org/2000/svg">
<path d="M18.0089 13.6668C18.3772 13.2553 18.3421 12.6231 17.9306 12.2548C17.519 11.8865 16.8868 11.9216 16.5185 12.3332L18.0089 13.6668ZM11 20L10.2548 19.3332C9.91507 19.7128 9.91507 20.2872 10.2548 20.6668L11 20ZM16.5185 27.6668C16.8868 28.0784 17.519 28.1135 17.9306 27.7452C18.3421 27.3769 18.3772 26.7447 18.0089 26.3332L16.5185 27.6668ZM29 21C29.5523 21 30 20.5523 30 20C30 19.4477 29.5523 19 29 19V21ZM16.5185 12.3332L10.2548 19.3332L11.7452 20.6668L18.0089 13.6668L16.5185 12.3332ZM10.2548 20.6668L16.5185 27.6668L18.0089 26.3332L11.7452 19.3332L10.2548 20.6668ZM11 21H29V19H11V21Z" fill="black"/>
</svg>
