<svg width="40" height="40" viewBox="0 0 40 40" fill="none" xmlns="http://www.w3.org/2000/svg">
<path d="M21.3956 13.2534L21.7572 12.8919C23.0184 11.6306 23.649 11 24.4327 11C25.2163 11 25.8469 11.6306 27.1082 12.8919C28.3694 14.1531 29 14.7837 29 15.5673C29 16.351 28.3694 16.9816 27.1082 18.2428L26.7466 18.6044M21.3956 13.2534L12.1127 22.5363C11.5556 23.0935 11.277 23.3721 11.1328 23.727C10.9887 24.0819 10.9941 24.4758 11.0048 25.2636L11.0301 27.1042C11.042 27.9738 11.0479 28.4087 11.3196 28.6804C11.5913 28.9521 12.0262 28.958 12.8958 28.9699L14.7364 28.9952C15.5242 29.006 15.9182 29.0113 16.273 28.8672C16.6279 28.723 16.9065 28.4444 17.4637 27.8873L26.7466 18.6044M21.3956 13.2534L26.7466 18.6044M21.4211 28.9952L29 28.9952" stroke="black" stroke-width="2" stroke-linecap="round"/>
</svg>
