<svg width="40" height="40" viewBox="0 0 40 40" fill="none" xmlns="http://www.w3.org/2000/svg">
<path d="M27.7319 26.4673L26.7368 26.3684L26.7368 26.3684L27.7319 26.4673ZM13.2681 26.4674L12.273 26.5663L12.273 26.5663L13.2681 26.4674ZM15.6427 31.6321L15.2135 32.5353L15.2135 32.5353L15.6427 31.6321ZM14.0007 30.1376L13.1422 30.6504L13.1422 30.6504L14.0007 30.1376ZM26.9993 30.1376L27.8578 30.6504L27.8578 30.6504L26.9993 30.1376ZM25.3573 31.6321L25.7865 32.5353L25.7865 32.5353L25.3573 31.6321ZM10 12.28C9.44772 12.28 9 12.7277 9 13.28C9 13.8323 9.44772 14.28 10 14.28V12.28ZM31 14.28C31.5523 14.28 32 13.8323 32 13.28C32 12.7277 31.5523 12.28 31 12.28V14.28ZM22.1957 8.09813L22.4559 7.13258L22.4559 7.13258L22.1957 8.09813ZM24.2206 10.1346L25.1869 9.87716L25.1869 9.87715L24.2206 10.1346ZM18.8043 8.09813L19.0645 9.06369L19.0645 9.06369L18.8043 8.09813ZM16.7794 10.1346L17.7457 10.392L17.7457 10.392L16.7794 10.1346ZM24.836 17.6989C24.8906 17.1494 24.4894 16.6596 23.9399 16.6049C23.3903 16.5503 22.9005 16.9515 22.8458 17.5011L24.836 17.6989ZM21.8913 27.1011C21.8366 27.6506 22.2378 28.1404 22.7874 28.1951C23.337 28.2497 23.8268 27.8485 23.8815 27.2989L21.8913 27.1011ZM18.1542 17.5011C18.0995 16.9515 17.6097 16.5503 17.0601 16.6049C16.5106 16.6596 16.1094 17.1494 16.164 17.6989L18.1542 17.5011ZM17.1185 27.2989C17.1732 27.8485 17.663 28.2497 18.2126 28.1951C18.7622 28.1404 19.1634 27.6506 19.1087 27.1011L17.1185 27.2989ZM21.6532 31H19.3468V33H21.6532V31ZM19.3468 31C18.3545 31 17.6679 30.9993 17.1311 30.9571C16.6067 30.9159 16.3045 30.8394 16.0718 30.7288L15.2135 32.5353C15.7552 32.7927 16.3285 32.9002 16.9744 32.9509C17.6077 33.0007 18.386 33 19.3468 33V31ZM12.273 26.5663C12.3686 27.5281 12.4453 28.3063 12.5574 28.9343C12.6717 29.5744 12.8346 30.1356 13.1422 30.6504L14.8592 29.6248C14.7256 29.4012 14.6194 29.1046 14.5263 28.5828C14.431 28.049 14.3619 27.3612 14.2632 26.3684L12.273 26.5663ZM16.0718 30.7288C15.5688 30.4899 15.1466 30.106 14.8592 29.6248L13.1422 30.6504C13.6317 31.4699 14.3523 32.1261 15.2135 32.5353L16.0718 30.7288ZM26.7368 26.3684C26.6381 27.3612 26.569 28.049 26.4737 28.5828C26.3806 29.1046 26.2744 29.4012 26.1408 29.6248L27.8578 30.6504C28.1654 30.1356 28.3283 29.5744 28.4426 28.9343C28.5547 28.3063 28.6314 27.5281 28.727 26.5663L26.7368 26.3684ZM21.6532 33C22.614 33 23.3923 33.0007 24.0256 32.9509C24.6715 32.9002 25.2448 32.7927 25.7865 32.5353L24.9282 30.7288C24.6955 30.8394 24.3933 30.9159 23.8689 30.9571C23.3321 30.9993 22.6455 31 21.6532 31V33ZM26.1408 29.6248C25.8534 30.106 25.4312 30.4899 24.9282 30.7288L25.7865 32.5353C26.6477 32.1261 27.3683 31.4699 27.8578 30.6504L26.1408 29.6248ZM23.3182 11.84V12.8H25.3182V11.84H23.3182ZM17.6818 12.8V11.84H15.6818V12.8H17.6818ZM20.5 9C21.4524 9 21.7314 9.00868 21.9355 9.06369L22.4559 7.13258C21.9317 6.99132 21.323 7 20.5 7V9ZM25.3182 11.84C25.3182 11.0113 25.3267 10.4018 25.1869 9.87716L23.2543 10.392C23.3097 10.5999 23.3182 10.8832 23.3182 11.84H25.3182ZM21.9355 9.06369C22.5767 9.23647 23.0809 9.74128 23.2543 10.392L25.1869 9.87715C24.8307 8.54019 23.7912 7.49241 22.4559 7.13258L21.9355 9.06369ZM20.5 7C19.677 7 19.0683 6.99132 18.5441 7.13258L19.0645 9.06369C19.2686 9.00868 19.5476 9 20.5 9V7ZM17.6818 11.84C17.6818 10.8832 17.6903 10.5999 17.7457 10.392L15.8131 9.87715C15.6733 10.4018 15.6818 11.0113 15.6818 11.84H17.6818ZM18.5441 7.13258C17.2088 7.49241 16.1693 8.54019 15.8131 9.87715L17.7457 10.392C17.9191 9.74128 18.4233 9.23647 19.0645 9.06369L18.5441 7.13258ZM22.8458 17.5011L21.8913 27.1011L23.8815 27.2989L24.836 17.6989L22.8458 17.5011ZM16.164 17.6989L17.1185 27.2989L19.1087 27.1011L18.1542 17.5011L16.164 17.6989ZM29.0432 14.28H31V12.28H29.0432V14.28ZM28.0481 13.1811L26.7368 26.3684L28.727 26.5663L30.0383 13.3789L28.0481 13.1811ZM24.3182 14.28H29.0432V12.28H24.3182V14.28ZM23.3182 12.8V13.28H25.3182V12.8H23.3182ZM16.6818 14.28H24.3182V12.28H16.6818V14.28ZM15.6818 12.8V13.28H17.6818V12.8H15.6818ZM10 14.28H11.9568V12.28H10V14.28ZM11.9568 14.28H16.6818V12.28H11.9568V14.28ZM14.2632 26.3684L12.9519 13.1811L10.9617 13.3789L12.273 26.5663L14.2632 26.3684Z" fill="black"/>
</svg>
