<svg width="40" height="40" viewBox="0 0 40 40" fill="none" xmlns="http://www.w3.org/2000/svg">
<path d="M33 19C33 18.4477 32.5523 18 32 18C31.4477 18 31 18.4477 31 19H33ZM9 19C9 18.4477 8.55228 18 8 18C7.44772 18 7 18.4477 7 19H9ZM11.2761 30.346L11.73 29.455H11.73L11.2761 30.346ZM8.65396 27.7239L7.76295 28.1779H7.76295L8.65396 27.7239ZM31.346 27.7239L30.455 27.27L31.346 27.7239ZM28.7239 30.346L29.1779 31.237L28.7239 30.346ZM21 9C21 8.44772 20.5523 8 20 8C19.4477 8 19 8.44772 19 9H21ZM20 24L19.2929 24.7071C19.6834 25.0976 20.3166 25.0976 20.7071 24.7071L20 24ZM24.7071 20.7071C25.0976 20.3166 25.0976 19.6834 24.7071 19.2929C24.3166 18.9024 23.6834 18.9024 23.2929 19.2929L24.7071 20.7071ZM16.7071 19.2929C16.3166 18.9024 15.6834 18.9024 15.2929 19.2929C14.9024 19.6834 14.9024 20.3166 15.2929 20.7071L16.7071 19.2929ZM31 19V21.4H33V19H31ZM22.4 30H17.6V32H22.4V30ZM9 21.4V19H7V21.4H9ZM17.6 30C15.9033 30 14.691 29.9992 13.7406 29.9216C12.802 29.8449 12.2073 29.6982 11.73 29.455L10.8221 31.237C11.6283 31.6478 12.5154 31.8281 13.5778 31.9149C14.6285 32.0008 15.9363 32 17.6 32V30ZM7 21.4C7 23.0637 6.99922 24.3715 7.08507 25.4222C7.17186 26.4846 7.35217 27.3717 7.76295 28.1779L9.54497 27.27C9.30179 26.7927 9.15512 26.198 9.07842 25.2594C9.00078 24.309 9 23.0967 9 21.4H7ZM11.73 29.455C10.7892 28.9757 10.0243 28.2108 9.54497 27.27L7.76295 28.1779C8.43407 29.4951 9.50493 30.5659 10.8221 31.237L11.73 29.455ZM31 21.4C31 23.0967 30.9992 24.309 30.9216 25.2594C30.8449 26.198 30.6982 26.7927 30.455 27.27L32.237 28.1779C32.6478 27.3717 32.8281 26.4846 32.9149 25.4222C33.0008 24.3715 33 23.0637 33 21.4H31ZM22.4 32C24.0637 32 25.3715 32.0008 26.4222 31.9149C27.4846 31.8281 28.3717 31.6478 29.1779 31.237L28.27 29.455C27.7927 29.6982 27.198 29.8449 26.2594 29.9216C25.309 29.9992 24.0967 30 22.4 30V32ZM30.455 27.27C29.9757 28.2108 29.2108 28.9757 28.27 29.455L29.1779 31.237C30.4951 30.5659 31.5659 29.4951 32.237 28.1779L30.455 27.27ZM19 9V24H21V9H19ZM20.7071 24.7071L24.7071 20.7071L23.2929 19.2929L19.2929 23.2929L20.7071 24.7071ZM20.7071 23.2929L16.7071 19.2929L15.2929 20.7071L19.2929 24.7071L20.7071 23.2929Z" fill="#8988B7"/>
</svg>
