<svg width="40" height="40" viewBox="0 0 40 40" fill="none" xmlns="http://www.w3.org/2000/svg">
<path d="M31 16C31 16.5523 31.4477 17 32 17C32.5523 17 33 16.5523 33 16H31ZM7 16C7 16.5523 7.44772 17 8 17C8.55228 17 9 16.5523 9 16H7ZM17 9C17.5523 9 18 8.55228 18 8C18 7.44772 17.5523 7 17 7V9ZM24 7C23.4477 7 23 7.44772 23 8C23 8.55228 23.4477 9 24 9V7ZM24 31C23.4477 31 23 31.4477 23 32C23 32.5523 23.4477 33 24 33V31ZM16 33C16.5523 33 17 32.5523 17 32C17 31.4477 16.5523 31 16 31V33ZM9 24C9 23.4477 8.55228 23 8 23C7.44772 23 7 23.4477 7 24H9ZM33 24C33 23.4477 32.5523 23 32 23C31.4477 23 31 23.4477 31 24H33ZM31 14V16H33V14H31ZM9 16V14H7V16H9ZM14 9H17V7H14V9ZM24 9H26V7H24V9ZM26 31H24V33H26V31ZM16 31H14V33H16V31ZM9 26V24H7V26H9ZM31 24V26H33V24H31ZM14 31C11.2386 31 9 28.7614 9 26H7C7 29.866 10.134 33 14 33V31ZM26 33C29.866 33 33 29.866 33 26H31C31 28.7614 28.7614 31 26 31V33ZM33 14C33 10.134 29.866 7 26 7V9C28.7614 9 31 11.2386 31 14H33ZM9 14C9 11.2386 11.2386 9 14 9V7C10.134 7 7 10.134 7 14H9Z" fill="#8988B7"/>
<path d="M12 14C12 12.8954 12.8954 12 14 12H16C17.1046 12 18 12.8954 18 14V16C18 17.1046 17.1046 18 16 18H14C12.8954 18 12 17.1046 12 16V14Z" stroke="#8988B7" stroke-width="2"/>
<path d="M22 14C22 12.8954 22.8954 12 24 12H26C27.1046 12 28 12.8954 28 14V16C28 17.1046 27.1046 18 26 18H24C22.8954 18 22 17.1046 22 16V14Z" stroke="#8988B7" stroke-width="2"/>
<path d="M12 24C12 22.8954 12.8954 22 14 22H16C17.1046 22 18 22.8954 18 24V26C18 27.1046 17.1046 28 16 28H14C12.8954 28 12 27.1046 12 26V24Z" stroke="#8988B7" stroke-width="2"/>
<path d="M14 14.6C14 14.2686 14.2686 14 14.6 14H15.4C15.7314 14 16 14.2686 16 14.6V15.4C16 15.7314 15.7314 16 15.4 16H14.6C14.2686 16 14 15.7314 14 15.4V14.6Z" fill="#8988B7"/>
<path d="M14 24.6C14 24.2686 14.2686 24 14.6 24H15.4C15.7314 24 16 24.2686 16 24.6V25.4C16 25.7314 15.7314 26 15.4 26H14.6C14.2686 26 14 25.7314 14 25.4V24.6Z" fill="#8988B7"/>
<path d="M24 14.6C24 14.2686 24.2686 14 24.6 14H25.4C25.7314 14 26 14.2686 26 14.6V15.4C26 15.7314 25.7314 16 25.4 16H24.6C24.2686 16 24 15.7314 24 15.4V14.6Z" fill="#8988B7"/>
<path d="M22 22.6C22 22.2686 22.2686 22 22.6 22H23.4C23.7314 22 24 22.2686 24 22.6V23.4C24 23.7314 23.7314 24 23.4 24H22.6C22.2686 24 22 23.7314 22 23.4V22.6Z" fill="#8988B7"/>
<path d="M24 24.6C24 24.2686 24.2686 24 24.6 24H25.4C25.7314 24 26 24.2686 26 24.6V25.4C26 25.7314 25.7314 26 25.4 26H24.6C24.2686 26 24 25.7314 24 25.4V24.6Z" fill="#8988B7"/>
<path d="M22 26.6C22 26.2686 22.2686 26 22.6 26H23.4C23.7314 26 24 26.2686 24 26.6V27.4C24 27.7314 23.7314 28 23.4 28H22.6C22.2686 28 22 27.7314 22 27.4V26.6Z" fill="#8988B7"/>
<path d="M26 26.6C26 26.2686 26.2686 26 26.6 26H27.4C27.7314 26 28 26.2686 28 26.6V27.4C28 27.7314 27.7314 28 27.4 28H26.6C26.2686 28 26 27.7314 26 27.4V26.6Z" fill="#8988B7"/>
<path d="M26 22.6C26 22.2686 26.2686 22 26.6 22H27.4C27.7314 22 28 22.2686 28 22.6V23.4C28 23.7314 27.7314 24 27.4 24H26.6C26.2686 24 26 23.7314 26 23.4V22.6Z" fill="#8988B7"/>
</svg>
